<svg width="246" height="129" viewBox="0 0 246 129" fill="none" xmlns="http://www.w3.org/2000/svg">
<path d="M6.14204 78.6397C-1.66845 70.8292 -1.66844 58.1659 6.14205 50.3554L50.3553 6.1421C58.1658 -1.66839 70.8291 -1.66838 78.6396 6.14211L122.853 50.3554C130.663 58.1659 130.663 70.8292 122.853 78.6397L78.6396 122.853C70.8291 130.663 58.1658 130.663 50.3553 122.853L6.14204 78.6397Z" fill="#FE753F"/>
<path d="M58.7905 40.9521H68.6314V71.1794C68.6314 74.5733 67.8208 77.543 66.1996 80.0884C64.5935 82.6339 62.3435 84.6187 59.4496 86.043C56.5556 87.4521 53.1844 88.1566 49.3359 88.1566C45.4723 88.1566 42.0935 87.4521 39.1996 86.043C36.3056 84.6187 34.0556 82.6339 32.4496 80.0884C30.8435 77.543 30.0405 74.5733 30.0405 71.1794V40.9521H39.8814V70.3384C39.8814 72.1112 40.2678 73.6869 41.0405 75.0657C41.8284 76.4445 42.9344 77.5278 44.3587 78.3157C45.7829 79.1036 47.442 79.4975 49.3359 79.4975C51.245 79.4975 52.9041 79.1036 54.3132 78.3157C55.7375 77.5278 56.8359 76.4445 57.6087 75.0657C58.3965 73.6869 58.7905 72.1112 58.7905 70.3384V40.9521Z" fill="white"/>
<path d="M76.728 87.4975V40.9521H95.0916C98.6219 40.9521 101.63 41.6263 104.114 42.9748C106.599 44.3081 108.493 46.1642 109.796 48.543C111.114 50.9066 111.773 53.6339 111.773 56.7248C111.773 59.8157 111.107 62.543 109.773 64.9066C108.44 67.2703 106.508 69.1112 103.978 70.4294C101.463 71.7475 98.4174 72.4066 94.8416 72.4066H83.1371V64.5203H93.2507C95.1446 64.5203 96.7053 64.1945 97.9325 63.543C99.175 62.8763 100.099 61.9597 100.705 60.793C101.326 59.6112 101.637 58.2551 101.637 56.7248C101.637 55.1793 101.326 53.8309 100.705 52.6793C100.099 51.5127 99.175 50.6112 97.9325 49.9748C96.6901 49.3233 95.1144 48.9975 93.2053 48.9975H86.5689V87.4975H76.728Z" fill="white"/>
<path d="M118.165 87.4975V40.9521H136.529C140.044 40.9521 143.044 41.5809 145.529 42.8384C148.029 44.0809 149.931 45.846 151.234 48.1339C152.552 50.4066 153.211 53.0809 153.211 56.1566C153.211 59.2475 152.544 61.9066 151.211 64.1339C149.878 66.346 147.946 68.043 145.415 69.2248C142.9 70.4066 139.855 70.9975 136.279 70.9975H123.984V63.0884H134.688C136.567 63.0884 138.128 62.8309 139.37 62.3157C140.612 61.8006 141.537 61.0278 142.143 59.9975C142.764 58.9672 143.075 57.6869 143.075 56.1566C143.075 54.6112 142.764 53.3081 142.143 52.2475C141.537 51.1869 140.605 50.3839 139.347 49.8384C138.105 49.2778 136.537 48.9975 134.643 48.9975H128.006V87.4975H118.165ZM143.302 66.3157L154.87 87.4975H144.006L132.688 66.3157H143.302Z" fill="#0085FF"/>
<path d="M159.984 87.4975V52.5884H169.665V87.4975H159.984ZM164.847 48.0884C163.408 48.0884 162.173 47.6112 161.143 46.6566C160.128 45.6869 159.62 44.5278 159.62 43.1793C159.62 41.846 160.128 40.7021 161.143 39.7475C162.173 38.7778 163.408 38.293 164.847 38.293C166.287 38.293 167.514 38.7778 168.529 39.7475C169.559 40.7021 170.075 41.846 170.075 43.1793C170.075 44.5278 169.559 45.6869 168.529 46.6566C167.514 47.6112 166.287 48.0884 164.847 48.0884Z" fill="#0085FF"/>
<path d="M206.467 62.543L197.603 63.0884C197.451 62.3309 197.126 61.649 196.626 61.043C196.126 60.4218 195.467 59.9293 194.648 59.5657C193.845 59.1869 192.883 58.9975 191.762 58.9975C190.262 58.9975 188.997 59.3157 187.967 59.9521C186.936 60.5733 186.421 61.4066 186.421 62.4521C186.421 63.2854 186.755 63.99 187.421 64.5657C188.088 65.1415 189.232 65.6036 190.853 65.9521L197.171 67.2248C200.565 67.9218 203.095 69.043 204.762 70.5884C206.429 72.1339 207.262 74.1642 207.262 76.6794C207.262 78.9672 206.588 80.9748 205.239 82.7021C203.906 84.4294 202.073 85.7778 199.739 86.7475C197.421 87.7021 194.747 88.1794 191.717 88.1794C187.095 88.1794 183.414 87.2172 180.671 85.293C177.944 83.3536 176.345 80.7172 175.876 77.3839L185.398 76.8839C185.686 78.293 186.383 79.3687 187.489 80.1112C188.595 80.8384 190.012 81.2021 191.739 81.2021C193.436 81.2021 194.8 80.8763 195.83 80.2248C196.876 79.5581 197.406 78.7021 197.421 77.6566C197.406 76.7778 197.035 76.0581 196.308 75.4975C195.58 74.9218 194.459 74.4824 192.944 74.1794L186.898 72.9748C183.489 72.293 180.951 71.1112 179.285 69.4294C177.633 67.7475 176.808 65.6036 176.808 62.9975C176.808 60.7551 177.414 58.8233 178.626 57.2021C179.853 55.5809 181.573 54.3309 183.785 53.4521C186.012 52.5733 188.618 52.1339 191.603 52.1339C196.012 52.1339 199.482 53.0657 202.012 54.9293C204.558 56.793 206.042 59.3309 206.467 62.543Z" fill="#0085FF"/>
<path d="M229.268 88.1794C225.677 88.1794 222.586 87.4521 219.995 85.9975C217.419 84.5278 215.434 82.4521 214.04 79.7703C212.647 77.0733 211.95 73.8839 211.95 70.2021C211.95 66.6112 212.647 63.4597 214.04 60.7475C215.434 58.0354 217.397 55.9218 219.927 54.4066C222.472 52.8915 225.457 52.1339 228.881 52.1339C231.184 52.1339 233.328 52.5051 235.313 53.2475C237.313 53.9748 239.056 55.0733 240.54 56.543C242.04 58.0127 243.207 59.8612 244.04 62.0884C244.874 64.3006 245.29 66.8915 245.29 69.8612V72.5203H215.813V66.5203H236.177C236.177 65.1263 235.874 63.8915 235.268 62.8157C234.662 61.74 233.821 60.899 232.745 60.293C231.684 59.6718 230.45 59.3612 229.04 59.3612C227.571 59.3612 226.268 59.7021 225.131 60.3839C224.01 61.0506 223.131 61.9521 222.495 63.0884C221.859 64.2097 221.533 65.4597 221.518 66.8384V72.543C221.518 74.2703 221.836 75.7627 222.472 77.0203C223.124 78.2778 224.04 79.2475 225.222 79.9294C226.404 80.6112 227.806 80.9521 229.427 80.9521C230.503 80.9521 231.487 80.8006 232.381 80.4975C233.275 80.1945 234.04 79.74 234.677 79.1339C235.313 78.5278 235.798 77.7854 236.131 76.9066L245.086 77.4975C244.631 79.649 243.7 81.5278 242.29 83.1339C240.897 84.7248 239.094 85.9672 236.881 86.8612C234.684 87.74 232.147 88.1794 229.268 88.1794Z" fill="#0085FF"/>
</svg>
