<svg width="129" height="129" viewBox="0 0 129 129" fill="none" xmlns="http://www.w3.org/2000/svg">
<path d="M6.14204 78.6397C-1.66845 70.8292 -1.66844 58.1659 6.14205 50.3555L50.3553 6.14216C58.1658 -1.66832 70.8291 -1.66831 78.6396 6.14217L122.853 50.3555C130.663 58.166 130.663 70.8292 122.853 78.6397L78.6396 122.853C70.8291 130.664 58.1658 130.663 50.3553 122.853L6.14204 78.6397Z" fill="#FE753F"/>
<path d="M76.728 87.4976V40.9521H95.0916C98.6219 40.9521 101.63 41.6264 104.114 42.9748C106.599 44.3082 108.493 46.1642 109.796 48.543C111.114 50.9067 111.773 53.6339 111.773 56.7248C111.773 59.8158 111.107 62.543 109.773 64.9067C108.44 67.2703 106.508 69.1112 103.978 70.4294C101.463 71.7476 98.4174 72.4067 94.8416 72.4067H83.1371V64.5203H93.2507C95.1447 64.5203 96.7053 64.1945 97.9325 63.543C99.175 62.8764 100.099 61.9597 100.705 60.793C101.326 59.6112 101.637 58.2552 101.637 56.7248C101.637 55.1794 101.326 53.8309 100.705 52.6794C100.099 51.5127 99.175 50.6112 97.9325 49.9748C96.6901 49.3233 95.1144 48.9976 93.2053 48.9976H86.5689V87.4976H76.728Z" fill="white"/>
<path d="M58.7905 40.9521H68.6314V71.1794C68.6314 74.5733 67.8208 77.543 66.1996 80.0885C64.5935 82.6339 62.3435 84.6188 59.4496 86.043C56.5557 87.4521 53.1844 88.1567 49.336 88.1567C45.4723 88.1567 42.0935 87.4521 39.1996 86.043C36.3057 84.6188 34.0557 82.6339 32.4496 80.0885C30.8435 77.543 30.0405 74.5733 30.0405 71.1794V40.9521H39.8814V70.3385C39.8814 72.1112 40.2678 73.687 41.0405 75.0658C41.8284 76.4445 42.9344 77.5279 44.3587 78.3158C45.7829 79.1036 47.442 79.4976 49.336 79.4976C51.245 79.4976 52.9041 79.1036 54.3132 78.3158C55.7375 77.5279 56.836 76.4445 57.6087 75.0658C58.3966 73.687 58.7905 72.1112 58.7905 70.3385V40.9521Z" fill="white"/>
</svg>
